# xmcd
#
# Track frame offsets:
#	150
#	16303
#	48060
#	125115
#	146283
#	164305
#	181390
#	193155
#	205528
#	221118
#	234208
#
# Disc length: 3286 seconds
#
# Revision: 1
# Processed by: cddbd v1.5.1PL0 Copyright (c) Steve Scherf et al.
# Submitted via: CDex 1.50Beta5
#
DISCID=940cd40b
DTITLE=姜建華 - 姜建華<Jiang Jian-hua>〜THE BEST COLLECTION II〜
DYEAR=2003
DGENRE=New Age
TTITLE0=トロイメライ(Traumerei)
TTITLE1=ヴォーカリーズ
TTITLE2=新婚別(Xinhunbie)<第一楽章 第ニ楽章 第三楽章>
TTITLE3=シルクロード(Silk Road)
TTITLE4=芭蕉布
TTITLE5=月の沙漠
TTITLE6=五ッ木の子守唄
TTITLE7=宵待草
TTITLE8=浜辺の歌
TTITLE9=出船
TTITLE10=赤とんぼ
EXTD=
EXTT0=
EXTT1=
EXTT2=
EXTT3=
EXTT4=
EXTT5=
EXTT6=
EXTT7=
EXTT8=
EXTT9=
EXTT10=
PLAYORDER=
